<?xml version="1.0" encoding="utf-8"?>
<!-- Generator: Adobe Illustrator 25.2.1, SVG Export Plug-In . SVG Version: 6.00 Build 0)  -->
<svg version="1.1" id="图层_1" xmlns="http://www.w3.org/2000/svg" xmlns:xlink="http://www.w3.org/1999/xlink" x="0px" y="0px"
	 viewBox="0 0 326 323.5" style="enable-background:new 0 0 326 323.5;" xml:space="preserve">
<style type="text/css">
	.st0{fill:#591C95;}
	.st1{fill:none;}
	.st2{fill:#FFFFFF;}
</style>
<path class="st0" d="M319.7,84l-2-7.2l-0.7-2l-1.4-4.1l-2.1-5.4l-2.9-6.3l-2.3-4.3l-4.3-7l-1.8-2.6l-1.4-1.8l-5.7-6.8l-6.8-6.6
	l-1.3-1.1l-1.5-1.3l-7.4-5.5l-5.4-3.3l-4.5-2.5l-10.3-4.6l-0.7-0.2l-0.2-0.1l-0.6-0.2l-11-3.6l-4.1-1.1l-6.7-1.5l-2-0.4l-7-1.2
	l-6.5-0.9l-2.9-0.3L210,1.3l-5.2-0.4l-5.5-0.3l-4.9-0.2l-4.6-0.1l-6.7-0.1l-4.4,0h-4.3h-7h-8.7h-7h-4.3l-4.4,0l-6.7,0.1l-4.6,0.1
	l-4.9,0.2l-5.5,0.3L116,1.3l-6.2,0.6l-2.9,0.3l-6.5,0.9l-7,1.2l-2,0.4l-6.7,1.5l-4.1,1.1l-11,3.6L69,11.1l-0.2,0.1l-0.7,0.2L57.8,16
	l-4.5,2.5l-5.4,3.3l-7.5,5.5l-1.5,1.2l-1.3,1.1l-6.8,6.7l-5.7,6.8L23.8,45l-1.9,2.6l-4.3,7l-2.3,4.3l-2.9,6.3l-2.1,5.4l-1.4,4.2
	l-0.7,2l-2,7.2L5,89.3l-0.3,1.2l-0.4,1.9l-1.7,10.3l-0.5,3.6L1.7,111l-0.5,6l-0.4,5.2L0.5,128l-0.2,4l-0.2,6l-0.1,6.3v3.3v6.3v15.8
	v6.3v3.3l0.1,6.2l0.2,6l0.2,4l0.3,5.8l0.4,5.2l0.5,6l0.5,4.6l0.5,3.6L4.4,231l0.4,1.9l0.3,1.2l1.2,5.3l2,7.2l0.7,2l1.4,4.2l2.1,5.4
	l2.9,6.3l2.3,4.3l4.3,7l1.8,2.6l1.3,1.8l5.7,6.8l6.8,6.6l1.3,1.1l1.5,1.3l7.5,5.5l5.4,3.3l4.5,2.5l10.2,4.6l0.7,0.3l0.2,0.1l0.5,0.2
	l11,3.6l4.1,1.1l6.7,1.5l2,0.4l7,1.2l6.5,0.9l2.9,0.3l6.2,0.6l5.2,0.4l5.5,0.3l4.9,0.2l4.6,0.1l6.7,0.1h4.4h4.3h7h8.7h7h4.3h4.4
	l6.7-0.1l4.6-0.1l4.9-0.2l5.5-0.3l5.2-0.4l6.2-0.6l2.9-0.3l6.5-0.9l7-1.2l2-0.4l6.7-1.5l4.1-1.1l11-3.6l0.6-0.2l0.2-0.1l0.7-0.3
	l10.2-4.6l4.5-2.5l5.4-3.3l7.4-5.5l1.5-1.3l1.3-1.1l6.8-6.6l5.7-6.8l1.4-1.8l1.8-2.6l4.3-7l2.3-4.3l2.9-6.3l2.1-5.4l1.4-4.2l0.7-2
	l2-7.2l1.2-5.3l0.3-1.2l0.4-1.9l1.7-10.3l0.5-3.6l0.5-4.6l0.6-6l0.3-5.2l0.3-5.8l0.2-4l0.2-6l0.1-6.2v-3.3v-6.3v-15.8v-6.3v-3.3
	l-0.1-6.3l-0.2-6l-0.2-4l-0.3-5.8l-0.3-5.2l-0.6-6l-0.5-4.6l-0.5-3.6l-1.7-10.3l-0.4-1.9l-0.2-1.3L319.7,84z"/>
<g>
	<rect x="35.5" y="34.2" class="st1" width="255" height="225.8"/>
	<path class="st2" d="M51.8,158.3C52,124.2,80.6,96.5,115,96.3c15.1,0,28.9,5,39.7,13.4c4.1,3.4,4.8,9.5,1.7,13.8
		c-3.4,4.3-9.8,5-13.8,1.9c-7.6-6.2-17-9.5-27.7-9.5c-11.9,0-22.9,4.8-31,12.4c-7.7,7.9-12.6,18.2-12.6,29.9s4.8,22.4,12.6,29.9
		c8.1,7.6,19.1,12.4,31,12.4c10.7,0,20-3.3,27.7-9.5c4-2.9,10.3-2.2,13.8,1.9c3.1,4.3,2.4,10.5-1.7,13.8
		c-10.8,8.4-24.6,13.4-39.7,13.4C80.6,220.2,52,192.5,51.8,158.3z"/>
	<path class="st2" d="M186,190.2c3.1-3.8,8.8-4.3,12.6-1.2c7.6,6.2,20.6,13.4,32.9,13.2c8.6,0,16.3-2.6,21.5-6.4
		c5.2-3.8,7.4-8.1,7.4-12.4c0-2.2-0.5-3.8-1.5-5.5c-1-1.7-2.6-3.4-5.2-5.2c-5-3.3-13.4-6.2-23.6-8.1h-0.3
		c-8.1-1.5-15.7-3.6-22.2-6.7s-12.2-7.4-16-13.4c-2.6-4.1-4-8.9-4-14.1c0-10.3,5.8-19.3,13.8-25.1c8.1-5.8,18.6-9.1,29.8-9.1
		c16.5,0,28.7,8.1,37.5,13.8c4,2.8,5.2,8.3,2.4,12.2c-2.6,4.1-8.1,5.3-12.2,2.6c-8.8-5.8-17.2-11-27.7-11c-7.7,0-14.6,2.4-19.3,5.8
		s-6.5,7.2-6.5,10.8c0,2.1,0.3,3.4,1.2,4.8c0.9,1.4,2.4,2.9,4.6,4.5c4.5,3.1,12.2,5.8,21.5,7.6h0.3c8.8,1.7,16.9,4,23.7,7.2
		c7.1,3.4,13.2,7.9,17.2,14.3c2.6,4.1,4.1,9.3,4.1,14.6c0,11-6.2,20.5-14.8,26.7c-8.4,6.2-19.6,9.8-31.8,9.8
		c-18.6-0.2-34.2-9.5-44-17.2C183.6,199.7,183.1,194,186,190.2z"/>
</g>
</svg>
