<svg xmlns="http://www.w3.org/2000/svg" viewBox="0 0 326 323.5"><path d="M319.7 84l-2-7.2-.7-2-1.4-4.1-2.1-5.4-2.9-6.3-2.3-4.3-4.3-7-1.8-2.6-1.4-1.8-5.7-6.8-6.8-6.6-1.3-1.1-1.5-1.3-7.4-5.5-5.4-3.3-4.5-2.5-10.3-4.6-.7-.2-.2-.1-.6-.2-11-3.6-4.1-1.1-6.7-1.5-2-.4-7-1.2-6.5-.9-2.9-.3-6.2-.8-5.2-.4-5.5-.3-4.9-.2-4.6-.1-6.7-.1H143l-6.7.1-4.6.1-4.9.2-5.5.3-5.3.4-6.2.6-2.9.3-6.5.9-7 1.2-2 .4-6.7 1.5-4.1 1.1-11 3.6-.6.2-.2.1-.7.2L57.8 16l-4.5 2.5-5.4 3.3-7.5 5.5-1.5 1.2-1.3 1.1-6.8 6.7-5.7 6.8-1.3 1.9-1.9 2.6-4.3 7-2.3 4.3-2.9 6.3-2.1 5.4-1.4 4.2-.7 2-2 7.2L5 89.3l-.3 1.2-.4 1.9-1.7 10.3-.5 3.6-.4 4.7-.5 6-.4 5.2-.3 5.8-.2 4-.2 6-.1 6.3v35l.1 6.2.2 6 .2 4 .3 5.8.4 5.2.5 6 .5 4.6.5 3.6L4.4 231l.4 1.9.3 1.2 1.2 5.3 2 7.2.7 2 1.4 4.2 2.1 5.4 2.9 6.3 2.3 4.3 4.3 7 1.8 2.6 1.3 1.8 5.7 6.8 6.8 6.6 1.3 1.1 1.5 1.3 7.5 5.5 5.4 3.3 4.5 2.5 10.2 4.6.7.3.2.1.5.2 11 3.6 4.1 1.1 6.7 1.5 2 .4 7 1.2 6.5.9 2.9.3 6.2.6 5.2.4 5.5.3 4.9.2 4.6.1 6.7.1h40.1l6.7-.1 4.6-.1 4.9-.2 5.5-.3 5.2-.4 6.2-.6 2.9-.3 6.5-.9 7-1.2 2-.4 6.7-1.5 4.1-1.1 11-3.6.6-.2.2-.1.7-.3 10.2-4.6 4.5-2.5 5.4-3.3 7.4-5.5 1.5-1.3 1.3-1.1 6.8-6.6 5.7-6.8 1.4-1.8 1.8-2.6 4.3-7 2.3-4.3 2.9-6.3 2.1-5.4 1.4-4.2.7-2 2-7.2 1.2-5.3.3-1.2.4-1.9 1.7-10.3.5-3.6.5-4.6.6-6 .3-5.2.3-5.8.2-4 .2-6 .1-6.2v-35l-.1-6.3-.2-6-.2-4-.3-5.8-.3-5.2-.6-6-.5-4.6-.5-3.6-1.7-10.3-.4-1.9-.2-1.3-.9-5.3z" fill="#591c95"/><path fill="none" d="M35.5 34.2h255V260h-255z"/><path d="M51.8 158.3c.2-34.1 28.8-61.8 63.2-62 15.1 0 28.9 5 39.7 13.4 4.1 3.4 4.8 9.5 1.7 13.8-3.4 4.3-9.8 5-13.8 1.9-7.6-6.2-17-9.5-27.7-9.5-11.9 0-22.9 4.8-31 12.4-7.7 7.9-12.6 18.2-12.6 29.9s4.8 22.4 12.6 29.9c8.1 7.6 19.1 12.4 31 12.4 10.7 0 20-3.3 27.7-9.5 4-2.9 10.3-2.2 13.8 1.9 3.1 4.3 2.4 10.5-1.7 13.8-10.8 8.4-24.6 13.4-39.7 13.4-34.4.1-63-27.6-63.2-61.8zM186 190.2c3.1-3.8 8.8-4.3 12.6-1.2 7.6 6.2 20.6 13.4 32.9 13.2 8.6 0 16.3-2.6 21.5-6.4 5.2-3.8 7.4-8.1 7.4-12.4 0-2.2-.5-3.8-1.5-5.5-1-1.7-2.6-3.4-5.2-5.2-5-3.3-13.4-6.2-23.6-8.1h-.3c-8.1-1.5-15.7-3.6-22.2-6.7s-12.2-7.4-16-13.4c-2.6-4.1-4-8.9-4-14.1 0-10.3 5.8-19.3 13.8-25.1 8.1-5.8 18.6-9.1 29.8-9.1 16.5 0 28.7 8.1 37.5 13.8 4 2.8 5.2 8.3 2.4 12.2-2.6 4.1-8.1 5.3-12.2 2.6-8.8-5.8-17.2-11-27.7-11-7.7 0-14.6 2.4-19.3 5.8s-6.5 7.2-6.5 10.8c0 2.1.3 3.4 1.2 4.8.9 1.4 2.4 2.9 4.6 4.5 4.5 3.1 12.2 5.8 21.5 7.6h.3c8.8 1.7 16.9 4 23.7 7.2 7.1 3.4 13.2 7.9 17.2 14.3 2.6 4.1 4.1 9.3 4.1 14.6 0 11-6.2 20.5-14.8 26.7-8.4 6.2-19.6 9.8-31.8 9.8-18.6-.2-34.2-9.5-44-17.2-3.8-3-4.3-8.7-1.4-12.5z" fill="#fff"/></svg>